<svg xmlns="http://www.w3.org/2000/svg" xmlns:xlink="http://www.w3.org/1999/xlink" id="Capa_1" x="0px" y="0px" viewBox="0 0 447.1 154.1" style="enable-background:new 0 0 447.1 154.1;" xml:space="preserve"><style type="text/css">	.st0{fill:#FFFFFF;}			.st1{clip-path:url(#SVGID_00000176748363184803440360000007009190969922353036_);fill:url(#SVGID_00000054262036874168997230000016239714226719825573_);}	.st2{font-family:'Roboto-Thin';}	.st3{font-size:20.9168px;}	.st4{letter-spacing:2;}</style><g>	<g>					<image style="overflow:visible;opacity:0.3;" width="421" height="205" xlink:href="22059E7E8EB48E3A.png" transform="matrix(1 0 0 1 94.5667 -27.9601)">		</image>		<g>			<g>				<path class="st0" d="M206.5,47.2c0.2-0.7,0.7-1.2,1.3-1.6c0.7-0.4,1.4-0.6,2.1-0.6c1.1,0,2.1,0.4,2.8,1.2c0.7,0.8,1,1.6,1,2.5     c0,0.5-0.1,1-0.4,1.5c-0.1,0.1-0.3,0.6-0.6,1.4c-0.3,0.9-0.8,2.2-1.5,4.2c-0.7,1.9-1.7,4.5-2.9,7.7c-1.2,3.2-2.7,7.2-4.5,12     l5.6,15.3l16.6-43.5c0.2-0.7,0.7-1.2,1.4-1.6c0.7-0.4,1.3-0.6,2.1-0.6c1.1,0,2.1,0.4,2.8,1.2c0.7,0.8,1,1.6,1,2.5     c0,0.5-0.1,1-0.4,1.5c-0.1,0.2-0.4,1-0.9,2.5c-0.5,1.5-1.5,4.2-2.9,8c-1.4,3.8-3.4,9.1-5.9,15.6c-2.5,6.6-5.7,14.9-9.6,25.1     c-0.3,0.9-0.8,1.6-1.4,2.2c-0.6,0.6-1.5,0.9-2.6,0.9c-1.1,0-2.1-0.3-2.8-1c-0.7-0.7-1.2-1.4-1.4-2c-1.1-2.9-2-5.6-2.9-8.3     c-0.9-2.7-1.8-5.1-2.6-7.4c-0.9,2.3-1.8,4.8-2.8,7.4c-0.9,2.7-2,5.4-3.1,8.3c-0.3,0.9-0.8,1.6-1.4,2.2c-0.6,0.6-1.5,0.9-2.6,0.9     c-1.1,0-2.1-0.3-2.8-1c-0.7-0.7-1.2-1.4-1.4-2c-3.4-9.4-6.3-17.4-8.7-23.9c-2.4-6.5-4.3-11.7-5.8-15.7c-1.5-4-2.5-6.8-3.2-8.6     c-0.7-1.8-1-2.7-1-2.8c-0.2-0.5-0.4-1.1-0.4-1.7c0-1.1,0.3-1.9,0.9-2.6c0.6-0.7,1.5-1,2.6-1c0.9,0,1.7,0.2,2.3,0.6     c0.7,0.4,1.1,0.9,1.3,1.6L190,90.7l5.9-15.5c-1.6-4.4-3-8.2-4.2-11.3c-1.1-3.1-2.1-5.7-2.8-7.7c-0.7-2-1.3-3.4-1.6-4.4     c-0.3-0.9-0.5-1.5-0.5-1.5c-0.2-0.5-0.4-1.1-0.4-1.7c0-1.1,0.3-1.9,0.9-2.6c0.6-0.7,1.5-1,2.6-1c0.9,0,1.7,0.2,2.3,0.6     c0.7,0.4,1.1,0.9,1.3,1.6l6.3,17.8L206.5,47.2z"></path>				<path class="st0" d="M295.5,93.3c-2.7,3-6,5.6-9.8,7.8c-3.8,2.2-7.9,3.3-12.3,3.3c-4.1,0-7.9-0.7-11.5-2.2     c-3.6-1.5-6.7-3.5-9.4-6.1c-2.7-2.6-4.8-5.7-6.4-9.3c-1.6-3.6-2.3-7.5-2.3-11.8c0-4.1,0.8-7.9,2.3-11.6c1.5-3.6,3.6-6.8,6.3-9.5     c2.7-2.7,5.8-4.8,9.4-6.4c3.6-1.6,7.6-2.3,11.8-2.3c3.9,0,7.7,0.8,11.2,2.4c3.6,1.6,6.7,3.7,9.4,6.4c2.7,2.7,4.8,5.8,6.4,9.4     c1.6,3.6,2.4,7.4,2.4,11.5v25.9c0,1.1-0.4,2-1.1,2.7c-0.7,0.7-1.6,1.1-2.7,1.1c-1.1,0-2-0.4-2.7-1.1c-0.7-0.7-1.1-1.6-1.1-2.7     V93.3z M295.5,74.9c0-3-0.6-5.9-1.7-8.6c-1.1-2.7-2.7-5-4.7-7.1c-2-2-4.4-3.6-7.1-4.7c-2.7-1.1-5.6-1.7-8.6-1.7     c-3,0-5.9,0.6-8.5,1.7c-2.7,1.1-5,2.7-7,4.7c-2,2-3.6,4.4-4.7,7.1c-1.1,2.7-1.7,5.6-1.7,8.6c0,3,0.6,5.9,1.7,8.5     c1.1,2.7,2.7,5,4.7,7c2,2,4.3,3.6,7,4.7c2.7,1.1,5.5,1.7,8.5,1.7c2.9,0,5.7-0.6,8.3-1.7c2.6-1.1,4.9-2.6,6.9-4.6     c2-2,3.6-4.3,4.8-6.9C294.6,81,295.3,78.1,295.5,74.9"></path>				<path class="st0" d="M348.1,45.2c3.3,0,6.2,0.5,8.8,1.5c2.6,1,4.9,2.1,6.7,3.4c1.9,1.3,3.3,2.5,4.4,3.8c1,1.3,1.5,2.2,1.5,2.9     c0,0.9-0.4,1.7-1.1,2.3c-0.7,0.7-1.6,1-2.5,1c-1.1,0-2-0.4-2.7-1.1c-2-1.8-4.4-3.3-7-4.4c-2.6-1.1-5.4-1.7-8.5-1.7     c-3,0-5.9,0.6-8.5,1.7c-2.7,1.1-5,2.7-7,4.7c-2,2-3.6,4.4-4.7,7.1c-1.1,2.7-1.7,5.6-1.7,8.6c0,3,0.6,5.9,1.7,8.5     c1.1,2.7,2.7,5,4.7,7c2,2,4.3,3.6,7,4.7c2.6,1.1,5.5,1.7,8.5,1.7c3,0,5.8-0.5,8.5-1.7c2.6-1.1,4.9-2.6,7-4.6     c0.7-0.7,1.6-1.1,2.7-1.1c1,0,1.9,0.4,2.6,1c0.8,0.7,1.2,1.6,1.2,2.6c0,0.7-0.5,1.6-1.4,2.9c-0.9,1.3-2.4,2.5-4.2,3.7     c-1.9,1.2-4.2,2.3-6.9,3.2c-2.7,0.9-5.9,1.3-9.4,1.3c-4.1,0-7.9-0.7-11.5-2.2c-3.6-1.5-6.7-3.5-9.4-6.1     c-2.7-2.6-4.8-5.7-6.4-9.3c-1.5-3.6-2.3-7.5-2.3-11.8c0-4.1,0.8-7.9,2.3-11.5c1.5-3.6,3.6-6.7,6.3-9.3c2.7-2.7,5.8-4.8,9.4-6.4     C339.9,46.2,343.8,45.4,348.1,45.2"></path>				<path class="st0" d="M413.6,45.1c3.9,0,7.7,0.8,11.2,2.4c3.6,1.6,6.7,3.7,9.4,6.4c2.7,2.7,4.8,5.8,6.4,9.4     c1.6,3.6,2.4,7.4,2.4,11.5c0,4-0.8,7.8-2.3,11.3c-1.6,3.6-3.7,6.7-6.3,9.4c-2.7,2.7-5.8,4.8-9.4,6.4c-3.6,1.6-7.5,2.3-11.6,2.3     c-4.1,0-7.9-0.7-11.5-2.2c-3.6-1.5-6.7-3.5-9.4-6.1c-2.7-2.6-4.8-5.7-6.4-9.3c-1.6-3.6-2.3-7.5-2.3-11.8c0-4.1,0.8-7.9,2.3-11.5     c1.5-3.6,3.6-6.7,6.3-9.3c2.7-2.7,5.8-4.8,9.4-6.4C405.4,46.1,409.3,45.2,413.6,45.1 M413.3,52.8c-3,0-5.9,0.6-8.5,1.7     c-2.7,1.1-5,2.7-7,4.7c-2,2-3.6,4.4-4.7,7.1c-1.1,2.7-1.7,5.6-1.7,8.6c0,3,0.6,5.9,1.7,8.5c1.1,2.7,2.7,5,4.7,7     c2,2,4.3,3.6,7,4.7c2.7,1.1,5.5,1.7,8.5,1.7c3,0,5.9-0.6,8.6-1.7c2.7-1.1,5-2.7,7.1-4.7c2-2,3.6-4.3,4.7-7     c1.1-2.7,1.7-5.5,1.7-8.5c0-3-0.6-5.9-1.7-8.6c-1.1-2.7-2.7-5-4.7-7.1c-2-2-4.4-3.6-7.1-4.7C419.2,53.4,416.3,52.8,413.3,52.8"></path>			</g>		</g>	</g>	<g>					<image style="overflow:visible;opacity:0.3;" width="383" height="384" xlink:href="22059E7E8EB48E3E.png" transform="matrix(1 0 0 1 -116.4333 -114.9601)">		</image>		<g>			<g>				<defs>					<path id="SVGID_1_" d="M60,10.3C46.1,21,33.4,32.5,21.6,45.5c3.2,6.2,4.8,9.3,7.8,15.4c0,0.1,0.1,0.1,0.1,0.2      c6.7,13.5,13.3,27,20,40.5c2.5,5.1,5.7,8.2,8.6,8.1c2.6,0,5.4-2.4,7.9-6.6c2.3,4.6,3.5,6.8,5.8,11.4c-3.8,4.6-8.7,6.7-13.8,6.8      h0c-8.8,0-15.5-6.7-18.9-14.3c-8.4-17.4-16.7-34.7-25.4-52c-1.7,2.2-3.5,4.4-5.2,6.7c-5.8,9-5.8,21.6,0,30.5      c15.1,19.6,31.9,36.4,51.5,51.5c9,5.8,21.6,5.8,30.5,0c19.6-15.1,36.4-31.9,51.5-51.5c5.8-9,5.8-21.6,0-30.5      c-1.7-2.3-3.4-4.5-5.2-6.7c-8.6,17.3-17,34.6-25.4,52c-3.4,7.6-10.1,14.3-19,14.3h0c-7.6-0.3-13.9-5.2-17.6-11.6c0,0,0,0,0,0.1      c-2.5-4.8-3.7-7.2-6.1-11.9c0,0,0,0,0,0c-0.5-1.1-0.8-1.6-1.3-2.7c-0.1-0.1-0.1-0.1-0.2-0.2c-0.5-0.9-0.7-1.4-1.1-2.3      c-3.9-7.7-7.7-15.5-11.6-23.2c-2.3-3.8-3.5-8.1-3.5-12.5c0-0.1,0-0.3,0-0.4c0.1-13.2,11.1-23.6,24.2-23.6      c13.2,0,24.3,10.6,24.2,24c0,0.1,0,0.2,0,0.3c-0.1,4.1-1.2,8.2-3.3,11.7c-4,7.7-8,15.3-12,23c-2.5-4.9-3.8-7.4-6.3-12.3      c3.2-6.4,4.8-9.6,8-16c0.1-0.1,0.1-0.2,0.2-0.3c1.1-1.9,1.7-4.1,1.7-6.3c0-0.1,0-0.2,0-0.2c-0.1-6.8-5.7-12.3-12.6-12.3      c-7,0-12.7,5.6-12.6,12.5c0,0.1,0,0.2,0,0.3c0.1,2.3,0.7,4.4,1.9,6.3c0.1,0.2,0.2,0.3,0.3,0.5c2.5,5,3.8,7.6,6.3,12.6      c0,0,0,0-0.1,0c3.5,6.9,6.9,13.7,10.4,20.5c0,0,0,0,0,0c0.9,1.7,1.3,2.6,2.2,4.3c0,0,0.1,0.1,0.1,0.1c2.6,5,5.8,8,8.7,8.1      c2.9,0,6.1-3,8.6-8.1c9.2-18.8,18.4-37.5,27.9-56.1c-11.8-13-24.5-24.5-38.4-35.2C86,7.4,80.6,5.9,75.2,5.9      C69.8,5.9,64.4,7.4,60,10.3"></path>				</defs>				<clipPath id="SVGID_00000172429507788890296880000017599328614280643485_">					<use xlink:href="#SVGID_1_" style="overflow:visible;"></use>				</clipPath>			</g>			<g>				<defs>					<path id="SVGID_00000044171245444005241440000013218738375849314211_" d="M60,10.3C46.1,21,33.4,32.5,21.6,45.5      c3.2,6.2,4.8,9.3,7.8,15.4c0,0.1,0.1,0.1,0.1,0.2c6.7,13.5,13.3,27,20,40.5c2.5,5.1,5.7,8.2,8.6,8.1c2.6,0,5.4-2.4,7.9-6.6      c2.3,4.6,3.5,6.8,5.8,11.4c-3.8,4.6-8.7,6.7-13.8,6.8h0c-8.8,0-15.5-6.7-18.9-14.3c-8.4-17.4-16.7-34.7-25.4-52      c-1.7,2.2-3.5,4.4-5.2,6.7c-5.8,9-5.8,21.6,0,30.5c15.1,19.6,31.9,36.4,51.5,51.5c9,5.8,21.6,5.8,30.5,0      c19.6-15.1,36.4-31.9,51.5-51.5c5.8-9,5.8-21.6,0-30.5c-1.7-2.3-3.4-4.5-5.2-6.7c-8.6,17.3-17,34.6-25.4,52      c-3.4,7.6-10.1,14.3-19,14.3h0c-7.6-0.3-13.9-5.2-17.6-11.6c0,0,0,0,0,0.1c-2.5-4.8-3.7-7.2-6.1-11.9c0,0,0,0,0,0      c-0.5-1.1-0.8-1.6-1.3-2.7c-0.1-0.1-0.1-0.1-0.2-0.2c-0.5-0.9-0.7-1.4-1.1-2.3c-3.9-7.7-7.7-15.5-11.6-23.2      c-2.3-3.8-3.5-8.1-3.5-12.5c0-0.1,0-0.3,0-0.4c0.1-13.2,11.1-23.6,24.2-23.6c13.2,0,24.3,10.6,24.2,24c0,0.1,0,0.2,0,0.3      c-0.1,4.1-1.2,8.2-3.3,11.7c-4,7.7-8,15.3-12,23c-2.5-4.9-3.8-7.4-6.3-12.3c3.2-6.4,4.8-9.6,8-16c0.1-0.1,0.1-0.2,0.2-0.3      c1.1-1.9,1.7-4.1,1.7-6.3c0-0.1,0-0.2,0-0.2c-0.1-6.8-5.7-12.3-12.6-12.3c-7,0-12.7,5.6-12.6,12.5c0,0.1,0,0.2,0,0.3      c0.1,2.3,0.7,4.4,1.9,6.3c0.1,0.2,0.2,0.3,0.3,0.5c2.5,5,3.8,7.6,6.3,12.6c0,0,0,0-0.1,0c3.5,6.9,6.9,13.7,10.4,20.5      c0,0,0,0,0,0c0.9,1.7,1.3,2.6,2.2,4.3c0,0,0.1,0.1,0.1,0.1c2.6,5,5.8,8,8.7,8.1c2.9,0,6.1-3,8.6-8.1      c9.2-18.8,18.4-37.5,27.9-56.1c-11.8-13-24.5-24.5-38.4-35.2C86,7.4,80.6,5.9,75.2,5.9C69.8,5.9,64.4,7.4,60,10.3"></path>				</defs>				<clipPath id="SVGID_00000042013546190075650350000005310153000314644640_">					<use xlink:href="#SVGID_00000044171245444005241440000013218738375849314211_" style="overflow:visible;"></use>				</clipPath>									<linearGradient id="SVGID_00000018950313429777136420000003746729724058488454_" gradientUnits="userSpaceOnUse" x1="-415.9073" y1="437.7548" x2="-415.2782" y2="437.7548" gradientTransform="matrix(225.9961 0 0 -225.9961 93997.5781 99008.6328)">					<stop offset="0" style="stop-color:#00FF64"></stop>					<stop offset="1" style="stop-color:#00FFFF"></stop>				</linearGradient>									<rect x="2.7" y="5.9" style="clip-path:url(#SVGID_00000042013546190075650350000005310153000314644640_);fill:url(#SVGID_00000018950313429777136420000003746729724058488454_);" width="145.1" height="143.6"></rect>			</g>			<g>				<defs>					<path id="SVGID_00000051366702765297612660000000734831049806267824_" d="M60,10.3C46.1,21,33.4,32.5,21.6,45.5      c3.2,6.2,4.8,9.3,7.8,15.4c0,0.1,0.1,0.1,0.1,0.2c6.7,13.5,13.3,27,20,40.5c2.5,5.1,5.7,8.2,8.6,8.1c2.6,0,5.4-2.4,7.9-6.6      c2.3,4.6,3.5,6.8,5.8,11.4c-3.8,4.6-8.7,6.7-13.8,6.8h0c-8.8,0-15.5-6.7-18.9-14.3c-8.4-17.4-16.7-34.7-25.4-52      c-1.7,2.2-3.5,4.4-5.2,6.7c-5.8,9-5.8,21.6,0,30.5c15.1,19.6,31.9,36.4,51.5,51.5c9,5.8,21.6,5.8,30.5,0      c19.6-15.1,36.4-31.9,51.5-51.5c5.8-9,5.8-21.6,0-30.5c-1.7-2.3-3.4-4.5-5.2-6.7c-8.6,17.3-17,34.6-25.4,52      c-3.4,7.6-10.1,14.3-19,14.3h0c-7.6-0.3-13.9-5.2-17.6-11.6c0,0,0,0,0,0.1c-2.5-4.8-3.7-7.2-6.1-11.9c0,0,0,0,0,0      c-0.5-1.1-0.8-1.6-1.3-2.7c-0.1-0.1-0.1-0.1-0.2-0.2c-0.5-0.9-0.7-1.4-1.1-2.3c-3.9-7.7-7.7-15.5-11.6-23.2      c-2.3-3.8-3.5-8.1-3.5-12.5c0-0.1,0-0.3,0-0.4c0.1-13.2,11.1-23.6,24.2-23.6c13.2,0,24.3,10.6,24.2,24c0,0.1,0,0.2,0,0.3      c-0.1,4.1-1.2,8.2-3.3,11.7c-4,7.7-8,15.3-12,23c-2.5-4.9-3.8-7.4-6.3-12.3c3.2-6.4,4.8-9.6,8-16c0.1-0.1,0.1-0.2,0.2-0.3      c1.1-1.9,1.7-4.1,1.7-6.3c0-0.1,0-0.2,0-0.2c-0.1-6.8-5.7-12.3-12.6-12.3c-7,0-12.7,5.6-12.6,12.5c0,0.1,0,0.2,0,0.3      c0.1,2.3,0.7,4.4,1.9,6.3c0.1,0.2,0.2,0.3,0.3,0.5c2.5,5,3.8,7.6,6.3,12.6c0,0,0,0-0.1,0c3.5,6.9,6.9,13.7,10.4,20.5      c0,0,0,0,0,0c0.9,1.7,1.3,2.6,2.2,4.3c0,0,0.1,0.1,0.1,0.1c2.6,5,5.8,8,8.7,8.1c2.9,0,6.1-3,8.6-8.1      c9.2-18.8,18.4-37.5,27.9-56.1c-11.8-13-24.5-24.5-38.4-35.2C86,7.4,80.6,5.9,75.2,5.9C69.8,5.9,64.4,7.4,60,10.3"></path>				</defs>				<clipPath id="SVGID_00000093156494897352191200000004345843822987622277_">					<use xlink:href="#SVGID_00000051366702765297612660000000734831049806267824_" style="overflow:visible;"></use>				</clipPath>			</g>		</g>	</g>	<g>		<text transform="matrix(1 0 0 1 195.9504 140.7518)" class="st0 st2 st3 st4">Work &amp; Collaborate</text>	</g></g></svg>